Highlights of Sachin Tendulkar's 36 runs scored in the Ist Innings of the Ist Test match of the 2010-11 series between South Africa and India played at SuperSport Park, Centurion from 16-20 Dec, 2010. In the 2nd Innings Sachin scored his 50th test hundred ending up with 111 n.o.

Check out my other torrent for that innings highlights.
 
http://thepiratebay.org/torrent/6903636/Sachin_Tendulkar_50th_Test_Century_2nd_Innings_111_n.o.__apsandh





General

Complete name                            : Sachin Tendulkar 50th Test Century
                                           Ist Innings 36 {apsandhu}.mp4
Format                                   : MPEG-4
Format profile                           : Base Media
Codec ID                                 : isom
File size                                : 126 MiB
Duration                                 : 13mn 15s
Overall bit rate                         : 1 328 Kbps
Encoded date                             : UTC 2011-12-18 06:23:40
Tagged date                              : UTC 2011-12-18 06:23:40

Video

ID                                       : 1
Format                                   : AVC
Format/Info                              : Advanced Video Codec
Format profile                           : High@L3.1
Format settings, CABAC                   : Yes
Format settings, ReFrames                : 4 frames
Codec ID                                 : avc1
Codec ID/Info                            : Advanced Video Coding
Duration                                 : 13mn 15s
Bit rate                                 : 1 243 Kbps
Maximum bit rate                         : 6 104 Kbps
Width                                    : 720 pixels
Height                                   : 400 pixels
Display aspect ratio                     : 16:9
Frame rate mode                          : Constant
Frame rate                               : 25.000 fps
Color space                              : YUV
Chroma subsampling                       : 4:2:0
Bit depth                                : 8 bits
Scan type                                : Progressive
Bits/(Pixel*Frame)                       : 0.173
Stream size                              : 118 MiB (94%)
Title                                    : Video
Encoded date                             : UTC 2011-06-04 08:20:08
Tagged date                              : UTC 2011-12-18 06:23:56

Audio

ID                                       : 2
Format                                   : AAC
Format/Info                              : Advanced Audio Codec
Format profile                           : HE-AAC / LC
Codec ID                                 : 40
Duration                                 : 13mn 15s
Bit rate mode                            : Variable
Bit rate                                 : 81.5 Kbps
Maximum bit rate                         : 102 Kbps
Channel(s)                               : 2 channels
Channel positions                        : Front: L R
Sampling rate                            : 44.1 KHz / 22.05 KHz
Compression mode                         : Lossy
Stream size                              : 7.70 MiB (6%)
Language                                 : English
Encoded date                             : UTC 2011-06-04 08:21:12
Tagged date                              : UTC 2011-12-18 06:23:56

